<svg width="132" height="122" viewBox="0 0 132 122" fill="none" xmlns="http://www.w3.org/2000/svg">
<path d="M66.2829 120.582C99.4077 120.582 126.261 93.5888 126.261 60.291C126.261 26.9932 99.4077 0 66.2829 0C33.1581 0 6.30518 26.9932 6.30518 60.291C6.30518 93.5888 33.1581 120.582 66.2829 120.582Z" fill="#6DBB9A"/>
<path d="M71.9255 122C105.05 122 131.903 95.0068 131.903 61.709C131.903 28.4112 105.05 1.41797 71.9255 1.41797C38.8007 1.41797 11.9478 28.4112 11.9478 61.709C11.9478 95.0068 38.8007 122 71.9255 122Z" fill="white"/>
<path d="M70.9518 55.2006C70.9518 55.0588 70.98 54.9028 71.0082 54.761L74.2525 39.2487H69.4283L68.1729 45.2183C67.7921 44.1548 66.6918 43.1197 65.3377 43.1197C61.2329 43.1197 57.5513 48.8057 57.5513 55.1864C57.5513 59.1283 59.2863 61.3545 62.0933 61.3545C64.1528 61.3545 65.4223 60.135 66.2263 58.7171H66.2686C66.9739 60.447 68.6525 61.2269 70.7966 61.3403L71.8686 56.2073C71.2903 56.1081 70.9376 55.7961 70.9376 55.2148M63.6732 57.6111C62.6999 57.6111 62.2908 56.7178 62.2908 55.3282C62.2908 52.7759 63.7296 46.934 66.0147 46.934C66.988 46.934 67.5664 48.1109 67.2137 49.7699L66.2404 54.4491C65.8314 56.4059 64.9004 57.6111 63.6873 57.6111" fill="#6DBB9A"/>
<path d="M77.6661 39.2062C77.4263 39.6316 77.0172 40.0428 76.4953 40.3406C76.0439 40.61 75.5643 40.7518 75.1129 40.7801L74.5346 43.616H75.917L73.251 56.2074H78.2444L81.8273 39.192H77.6802L77.6661 39.2062Z" fill="#6DBB9A"/>
<path d="M75.6206 56.9872C74.4216 56.9872 73.4624 57.9656 73.4624 59.1567C73.4624 60.3478 74.4357 61.3262 75.6206 61.3262C76.8055 61.3262 77.7788 60.3478 77.7788 59.1567C77.7788 57.9515 76.8055 56.9872 75.6206 56.9872Z" fill="#6DBB9A"/>
<path d="M72.7575 98.6322V97.6822L69.0618 93.2157C68.8925 93.0172 68.7514 92.8045 68.6245 92.5918C67.4114 90.394 66.8472 87.785 66.8472 85.3036V77.6892C66.8472 76.3847 66.9741 75.307 68.3283 75.307C69.6824 75.307 71.7701 77.5332 71.7701 78.8377V84.7789V63.3963C71.7701 62.0918 72.8844 61.0142 74.2386 61.0142C75.5927 61.0142 76.7071 62.0918 76.7071 63.3963V76.8526V74.8249C76.7071 73.5204 77.8215 72.4428 79.1756 72.4428C80.5298 72.4428 81.6441 73.5204 81.6441 74.8249V77.8452V76.725C81.6441 75.4205 82.7585 74.3428 84.1126 74.3428C85.4668 74.3428 86.5811 75.4205 86.5811 76.725V79.8161V78.625C86.5811 77.3205 87.6955 76.2429 89.0497 76.2429C90.4038 76.2429 91.5182 77.3205 91.5182 78.625V85.2894C91.5182 88.6925 90.7423 91.897 89.4446 95.0448C89.3036 95.371 89.1202 95.6829 88.9086 95.9665L87.5827 97.668V98.6181" stroke="#422D4E" stroke-width="2.1" stroke-linecap="round" stroke-linejoin="round"/>
<path d="M66.8471 69.9189H49.1162C46.9439 69.9189 45.1807 68.1465 45.1807 65.9628V34.2717C45.1807 32.0881 46.9439 30.3157 49.1162 30.3157H90.4884C92.6607 30.3157 94.4239 32.0881 94.4239 34.2717V65.9628C94.4239 68.1465 92.6607 69.9189 90.4884 69.9189H84.5781" stroke="#422D4E" stroke-width="2.1" stroke-linecap="round" stroke-linejoin="round"/>
<path d="M19.9879 49.5146C31.0269 49.5146 39.9758 40.519 39.9758 29.4224C39.9758 18.3257 31.0269 9.33008 19.9879 9.33008C8.94888 9.33008 0 18.3257 0 29.4224C0 40.519 8.94888 49.5146 19.9879 49.5146Z" fill="#6DBB9A"/>
<path d="M21.5767 22.3636V34H20.1676V23.8409H20.0994L17.2585 25.7273V24.2955L20.1676 22.3636H21.5767Z" fill="white"/>
</svg>
