<svg width="135" height="122" viewBox="0 0 135 122" fill="none" xmlns="http://www.w3.org/2000/svg">
<path d="M69.1184 120.582C102.243 120.582 129.096 93.5888 129.096 60.291C129.096 26.9932 102.243 0 69.1184 0C35.9936 0 9.14062 26.9932 9.14062 60.291C9.14062 93.5888 35.9936 120.582 69.1184 120.582Z" fill="#6DBB9A"/>
<path d="M74.7604 122C107.885 122 134.738 95.0068 134.738 61.709C134.738 28.4112 107.885 1.41797 74.7604 1.41797C41.6357 1.41797 14.7827 28.4112 14.7827 61.709C14.7827 95.0068 41.6357 122 74.7604 122Z" fill="white"/>
<path d="M94.4943 81.546V91.4717C94.4943 93.9105 92.5336 95.8815 90.1074 95.8815H59.4133C56.9871 95.8815 55.0264 93.9105 55.0264 91.4717V31.9463C55.0264 29.5074 56.9871 27.5365 59.4133 27.5365H90.1074C92.5336 27.5365 94.4943 29.5074 94.4943 31.9463V81.546Z" stroke="#422D4E" stroke-width="2.33" stroke-linecap="round" stroke-linejoin="round"/>
<path d="M61.5996 82.652H87.9069" stroke="#422D4E" stroke-width="2.33" stroke-linecap="round" stroke-linejoin="round"/>
<path d="M87.9069 35.2643H61.5996" stroke="#422D4E" stroke-width="2.33" stroke-linecap="round" stroke-linejoin="round"/>
<path d="M70.3735 89.2596H79.1473" stroke="#422D4E" stroke-width="2.33" stroke-linecap="round" stroke-linejoin="round"/>
<path d="M87.9209 49.6281V44.9063H83.2236" stroke="#6DBB9A" stroke-width="2.33" stroke-linecap="round" stroke-linejoin="round"/>
<path d="M66.2827 44.9063H61.5996V49.6281" stroke="#6DBB9A" stroke-width="2.33" stroke-linecap="round" stroke-linejoin="round"/>
<path d="M83.2236 71.3794H87.9209V66.6576" stroke="#6DBB9A" stroke-width="2.33" stroke-linecap="round" stroke-linejoin="round"/>
<path d="M61.5996 66.6576V71.3794H66.2827" stroke="#6DBB9A" stroke-width="2.33" stroke-linecap="round" stroke-linejoin="round"/>
<path d="M19.9879 49.5146C31.0269 49.5146 39.9757 40.519 39.9757 29.4224C39.9757 18.3257 31.0269 9.33008 19.9879 9.33008C8.94887 9.33008 0 18.3257 0 29.4224C0 40.519 8.94887 49.5146 19.9879 49.5146Z" fill="#6DBB9A"/>
<path d="M16.5991 34V32.9773L20.44 28.7727C20.8907 28.2803 21.262 27.8523 21.5536 27.4886C21.8453 27.1212 22.0612 26.7765 22.2013 26.4545C22.3453 26.1288 22.4173 25.7879 22.4173 25.4318C22.4173 25.0227 22.3188 24.6686 22.1218 24.3693C21.9286 24.0701 21.6635 23.839 21.3263 23.6761C20.9892 23.5133 20.6104 23.4318 20.19 23.4318C19.743 23.4318 19.3529 23.5246 19.0195 23.7102C18.69 23.892 18.4343 24.1477 18.2525 24.4773C18.0745 24.8068 17.9854 25.1932 17.9854 25.6364H16.6445C16.6445 24.9545 16.8017 24.3561 17.1161 23.8409C17.4305 23.3258 17.8585 22.9242 18.4002 22.6364C18.9457 22.3485 19.5574 22.2045 20.2354 22.2045C20.9173 22.2045 21.5214 22.3485 22.0479 22.6364C22.5745 22.9242 22.9873 23.3125 23.2866 23.8011C23.5858 24.2898 23.7354 24.8333 23.7354 25.4318C23.7354 25.8598 23.6578 26.2784 23.5025 26.6875C23.351 27.0928 23.0858 27.5455 22.707 28.0455C22.332 28.5417 21.8112 29.1477 21.1445 29.8636L18.5309 32.6591V32.75H23.94V34H16.5991Z" fill="white"/>
</svg>
