<svg width="138" height="122" viewBox="0 0 138 122" fill="none" xmlns="http://www.w3.org/2000/svg">
<g clip-path="url(#clip0_1_161)">
<path d="M72.1698 120.582C105.401 120.582 132.34 93.5888 132.34 60.291C132.34 26.9932 105.401 0 72.1698 0C38.9389 0 12 26.9932 12 60.291C12 93.5888 38.9389 120.582 72.1698 120.582Z" fill="#6DBB9A"/>
<path d="M77.83 122C111.061 122 138 95.0068 138 61.709C138 28.4112 111.061 1.41797 77.83 1.41797C44.5991 1.41797 17.6602 28.4112 17.6602 61.709C17.6602 95.0068 44.5991 122 77.83 122Z" fill="white"/>
<path d="M93.7784 81.546V91.4717C93.7784 93.9105 91.8114 95.8815 89.3775 95.8815H58.585C56.1511 95.8815 54.1841 93.9105 54.1841 91.4717V31.9463C54.1841 29.5074 56.1511 27.5365 58.585 27.5365H89.3775C91.8114 27.5365 93.7784 29.5074 93.7784 31.9463V35.2501" stroke="#422D4E" stroke-width="2.33" stroke-linecap="round" stroke-linejoin="round"/>
<path d="M60.7925 82.652H87.184" stroke="#422D4E" stroke-width="2.33" stroke-linecap="round" stroke-linejoin="round"/>
<path d="M87.184 35.2643H60.7925" stroke="#422D4E" stroke-width="2.33" stroke-linecap="round" stroke-linejoin="round"/>
<path d="M69.5801 89.2596H78.382" stroke="#422D4E" stroke-width="2.33" stroke-linecap="round" stroke-linejoin="round"/>
<path d="M75.085 58.4051C75.085 51.1027 81.0001 45.1757 88.2878 45.1757" stroke="#422D4E" stroke-width="2.33" stroke-linecap="round" stroke-linejoin="round"/>
<path d="M98.1796 49.6564C100.231 51.9819 101.477 55.0446 101.477 58.4052C101.477 65.7076 95.5617 71.6346 88.2739 71.6346" stroke="#422D4E" stroke-width="2.33" stroke-linecap="round" stroke-linejoin="round"/>
<path d="M87.6088 45.19C80.6748 45.5445 75.1418 51.3439 75.0852 58.2918C75.071 60.8299 75.7644 63.2121 76.9814 65.2256V62.3046C76.9814 62.2053 77.0522 62.1344 77.1512 62.1344C77.2503 62.1344 77.321 62.2053 77.321 62.3046V71.1951C77.321 71.1951 77.321 71.2518 77.2927 71.2802C77.2927 71.422 77.4342 71.5212 77.5616 71.4929C77.5616 71.4645 77.5899 71.4362 77.6182 71.4078L81.8069 68.657C81.8918 68.6003 81.9908 68.6286 82.0474 68.6995C82.104 68.7846 82.0757 68.8838 82.005 68.9406L81.1276 69.5219C83.1937 70.869 85.6559 71.6488 88.3163 71.6347C95.2786 71.6347 101.123 66.0621 101.477 59.1C101.873 51.2588 95.4484 44.8071 87.6229 45.2042L87.6088 45.19Z" stroke="#422D4E" stroke-width="2.33" stroke-linecap="round" stroke-linejoin="round"/>
<path d="M87.835 61.7941C88.4577 61.7941 88.8963 61.6806 89.1511 61.4679C89.4199 61.2552 89.5473 60.9858 89.5473 60.6881C89.5473 60.4045 89.4482 60.1776 89.236 60.0074C89.0237 59.8373 88.7265 59.6955 88.3162 59.5537L87.4246 59.2701C86.9294 59.1141 86.4907 58.9582 86.0945 58.7738C85.6982 58.5895 85.3586 58.3768 85.0756 58.1216C84.7926 57.8663 84.5803 57.5686 84.4246 57.2283C84.269 56.888 84.1841 56.4626 84.1841 55.9805C84.1841 55.1864 84.4246 54.52 84.9199 53.9954C85.4152 53.4707 86.1086 53.1162 87.0143 52.9319V51.5423C87.1133 51.4998 87.269 51.4714 87.4529 51.443C87.6369 51.4147 87.8492 51.4005 88.0614 51.4005C88.5143 51.4005 88.8539 51.4856 89.0662 51.6416C89.2784 51.7975 89.3775 52.0953 89.3775 52.5349V52.8468C90.1133 52.9461 90.7077 53.1162 91.1605 53.3856C91.6133 53.655 91.8397 54.0237 91.8397 54.4916C91.8397 54.761 91.769 55.0021 91.6416 55.2006C91.5143 55.3991 91.3586 55.5835 91.1746 55.7111C90.9058 55.5267 90.552 55.3708 90.0992 55.2431C89.6463 55.1155 89.1652 55.0446 88.6416 55.0446C88.0756 55.0446 87.6652 55.1297 87.3963 55.314C87.1275 55.4842 87.0001 55.7111 87.0001 55.9805C87.0001 56.2215 87.085 56.3917 87.269 56.5193C87.4388 56.6469 87.7218 56.7745 88.0897 56.9021L89.0379 57.2141C89.5897 57.3984 90.0709 57.5969 90.4812 57.8238C90.8916 58.0365 91.2454 58.2917 91.5284 58.5611C91.8114 58.8305 92.0237 59.1567 92.1652 59.5112C92.3067 59.8656 92.3775 60.2769 92.3775 60.7306C92.3775 61.5388 92.1228 62.2194 91.6275 62.7724C91.1322 63.3254 90.3822 63.7083 89.3916 63.9068V65.268C89.2926 65.2964 89.1511 65.3247 88.9671 65.3531C88.769 65.3815 88.5709 65.3956 88.3445 65.3956C87.8916 65.3956 87.552 65.3106 87.3397 65.1546C87.1275 64.9986 87.0284 64.7008 87.0284 64.2755V63.9919C86.1935 63.8926 85.5001 63.6941 84.9765 63.3822C84.4529 63.0702 84.1841 62.6448 84.1841 62.1202C84.1841 61.8082 84.269 61.5388 84.4529 61.3261C84.6369 61.1134 84.835 60.9433 85.0614 60.8157C85.3728 61.0709 85.769 61.2978 86.236 61.4963C86.7029 61.6948 87.2407 61.7941 87.835 61.7941Z" fill="#6DBB9A"/>
<path d="M20.0519 50.1846C31.1262 50.1846 40.1038 41.1889 40.1038 30.0923C40.1038 18.9956 31.1262 10 20.0519 10C8.97754 10 0 18.9956 0 30.0923C0 41.1889 8.97754 50.1846 20.0519 50.1846Z" fill="#6DBB9A"/>
<path d="M20.9128 29.432C22.1128 29.064 23.0728 28.168 23.0728 26.792C23.0728 25.016 21.8408 23.96 19.7928 23.96C18.7048 23.96 17.5208 24.184 16.5128 24.712L16.8488 25.576C17.7448 25.144 18.5928 24.904 19.6168 24.904C21.5848 24.904 21.9528 26.168 21.9528 26.904C21.9528 27.992 21.1528 29.096 19.3608 29.096H18.0808V30.024H19.4088C21.3768 30.024 22.2408 30.904 22.2408 32.104C22.2408 32.808 21.9688 34.216 19.6168 34.216C18.5128 34.216 17.5048 34.008 16.5928 33.544L16.2248 34.408C17.2488 34.968 18.4328 35.16 19.6808 35.16C22.1448 35.16 23.3928 34.056 23.3928 32.168C23.3928 30.776 22.4648 29.736 20.9128 29.464V29.432Z" fill="white"/>
</g>
<defs>
<clipPath id="clip0_1_161">
<rect width="138" height="122" fill="white"/>
</clipPath>
</defs>
</svg>
